<?xml version="1.0" standalone="no"?>
<!DOCTYPE svg PUBLIC "-//W3C//DTD SVG 20010904//EN"
 "http://www.w3.org/TR/2001/REC-SVG-20010904/DTD/svg10.dtd">
<svg version="1.0" xmlns="http://www.w3.org/2000/svg"
 width="626.000000pt" height="626.000000pt" viewBox="0 0 626.000000 626.000000"
 preserveAspectRatio="xMidYMid meet">
<metadata>
Created by potrace 1.16, written by Peter Selinger 2001-2019
</metadata>
<g transform="translate(0.000000,626.000000) scale(0.100000,-0.100000)"
fill="#22c55e" stroke="none">
<path d="M2874 5289 c-151 -113 -310 -301 -391 -464 -65 -128 -114 -312 -128
-470 -19 -227 69 -529 214 -733 100 -140 267 -294 384 -353 l40 -21 -7 64 c-3
34 -30 255 -59 491 -29 235 -50 427 -46 427 10 0 23 -38 124 -365 168 -541
189 -605 199 -602 22 7 126 153 165 231 62 125 85 220 85 351 -1 197 -42 316
-249 720 -73 143 -150 305 -170 360 -42 114 -75 269 -75 355 0 33 -4 60 -9 60
-4 0 -39 -23 -77 -51z"/>
<path d="M3812 5164 c-93 -53 -172 -135 -215 -224 -40 -80 -67 -186 -67 -262
0 -112 47 -260 108 -337 17 -21 23 -23 49 -13 44 15 109 58 160 105 139 128
207 336 169 517 -19 93 -93 244 -121 248 -11 1 -48 -14 -83 -34z"/>
<path d="M4496 4879 c-2 -8 -11 -54 -21 -104 -54 -295 -196 -564 -552 -1050
-110 -150 -150 -208 -223 -325 -131 -211 -192 -355 -230 -540 -30 -144 -24
-340 15 -480 43 -157 150 -397 200 -449 21 -22 37 -4 127 148 92 155 156 286
194 398 35 104 29 168 -26 300 -66 159 -73 128 93 459 234 466 269 524 314
524 22 0 63 -31 63 -49 0 -16 -27 -86 -73 -186 -147 -325 -250 -563 -254 -592
-3 -19 0 -39 7 -48 17 -21 63 -19 84 4 9 10 88 180 176 376 87 197 165 366
174 377 21 24 71 23 96 -2 11 -11 20 -24 20 -30 0 -5 -43 -108 -96 -227 -254
-576 -253 -573 -216 -606 49 -44 72 -13 187 248 193 439 217 491 237 513 40
41 98 19 98 -37 0 -48 -272 -783 -308 -830 -26 -35 -82 -66 -177 -97 -165 -53
-203 -98 -308 -365 -40 -101 -102 -291 -121 -371 l-6 -27 62 26 c351 142 666
392 859 683 395 595 379 1357 -42 1976 -115 168 -343 416 -353 383z"/>
<path d="M1591 4635 c-25 -82 -28 -223 -6 -308 55 -213 260 -397 454 -409 l45
-3 19 60 c59 188 13 397 -119 544 -88 97 -209 164 -317 177 l-55 7 -21 -68z"/>
<path d="M987 3654 c-44 -209 -51 -276 -51 -514 0 -198 3 -255 22 -365 66
-381 230 -746 465 -1033 90 -111 278 -294 382 -372 359 -270 730 -408 1212
-450 150 -13 424 7 598 45 349 75 653 220 930 442 254 203 461 463 606 758 62
129 174 435 166 458 -1 5 -33 -41 -70 -103 -99 -166 -197 -290 -342 -436 -238
-239 -454 -381 -766 -505 -648 -257 -1453 -191 -1954 159 -103 72 -130 81
-250 82 -117 1 -194 23 -306 90 -76 45 -178 140 -228 214 -46 66 -98 183 -116
258 -59 253 71 471 304 509 244 39 552 -171 672 -459 39 -94 49 -157 49 -311
l0 -125 49 -47 c124 -119 498 -291 749 -344 117 -25 112 -28 112 69 0 97 -27
264 -70 425 -180 683 -719 1268 -1385 1504 -220 78 -406 116 -616 124 l-146 6
-16 -79z"/>
<path d="M1410 2474 c1 -57 30 -165 60 -223 67 -125 193 -232 319 -271 102
-32 114 -24 29 21 -151 80 -297 245 -368 415 -38 93 -40 96 -40 58z"/>
</g>
</svg>
